<svg id="visual" viewBox="0 0 900 600" width="900" height="600" xmlns="http://www.w3.org/2000/svg" xmlns:xlink="http://www.w3.org/1999/xlink" version="1.1"><rect x="0" y="0" width="900" height="600" fill="#0e210b"></rect><defs><linearGradient id="grad1_0" x1="33.3%" y1="0%" x2="100%" y2="100%"><stop offset="20%" stop-color="#294329" stop-opacity="1"></stop><stop offset="80%" stop-color="#294329" stop-opacity="1"></stop></linearGradient></defs><defs><linearGradient id="grad1_1" x1="33.3%" y1="0%" x2="100%" y2="100%"><stop offset="20%" stop-color="#294329" stop-opacity="1"></stop><stop offset="80%" stop-color="#253e25" stop-opacity="1"></stop></linearGradient></defs><defs><linearGradient id="grad1_2" x1="33.3%" y1="0%" x2="100%" y2="100%"><stop offset="20%" stop-color="#213921" stop-opacity="1"></stop><stop offset="80%" stop-color="#253e25" stop-opacity="1"></stop></linearGradient></defs><defs><linearGradient id="grad1_3" x1="33.3%" y1="0%" x2="100%" y2="100%"><stop offset="20%" stop-color="#213921" stop-opacity="1"></stop><stop offset="80%" stop-color="#1d341d" stop-opacity="1"></stop></linearGradient></defs><defs><linearGradient id="grad1_4" x1="33.3%" y1="0%" x2="100%" y2="100%"><stop offset="20%" stop-color="#192f19" stop-opacity="1"></stop><stop offset="80%" stop-color="#1d341d" stop-opacity="1"></stop></linearGradient></defs><defs><linearGradient id="grad1_5" x1="33.3%" y1="0%" x2="100%" y2="100%"><stop offset="20%" stop-color="#192f19" stop-opacity="1"></stop><stop offset="80%" stop-color="#152a15" stop-opacity="1"></stop></linearGradient></defs><defs><linearGradient id="grad1_6" x1="33.3%" y1="0%" x2="100%" y2="100%"><stop offset="20%" stop-color="#112610" stop-opacity="1"></stop><stop offset="80%" stop-color="#152a15" stop-opacity="1"></stop></linearGradient></defs><defs><linearGradient id="grad1_7" x1="33.3%" y1="0%" x2="100%" y2="100%"><stop offset="20%" stop-color="#112610" stop-opacity="1"></stop><stop offset="80%" stop-color="#0e210b" stop-opacity="1"></stop></linearGradient></defs><defs><linearGradient id="grad2_0" x1="0%" y1="0%" x2="66.7%" y2="100%"><stop offset="20%" stop-color="#294329" stop-opacity="1"></stop><stop offset="80%" stop-color="#294329" stop-opacity="1"></stop></linearGradient></defs><defs><linearGradient id="grad2_1" x1="0%" y1="0%" x2="66.7%" y2="100%"><stop offset="20%" stop-color="#253e25" stop-opacity="1"></stop><stop offset="80%" stop-color="#294329" stop-opacity="1"></stop></linearGradient></defs><defs><linearGradient id="grad2_2" x1="0%" y1="0%" x2="66.7%" y2="100%"><stop offset="20%" stop-color="#253e25" stop-opacity="1"></stop><stop offset="80%" stop-color="#213921" stop-opacity="1"></stop></linearGradient></defs><defs><linearGradient id="grad2_3" x1="0%" y1="0%" x2="66.7%" y2="100%"><stop offset="20%" stop-color="#1d341d" stop-opacity="1"></stop><stop offset="80%" stop-color="#213921" stop-opacity="1"></stop></linearGradient></defs><defs><linearGradient id="grad2_4" x1="0%" y1="0%" x2="66.7%" y2="100%"><stop offset="20%" stop-color="#1d341d" stop-opacity="1"></stop><stop offset="80%" stop-color="#192f19" stop-opacity="1"></stop></linearGradient></defs><defs><linearGradient id="grad2_5" x1="0%" y1="0%" x2="66.7%" y2="100%"><stop offset="20%" stop-color="#152a15" stop-opacity="1"></stop><stop offset="80%" stop-color="#192f19" stop-opacity="1"></stop></linearGradient></defs><defs><linearGradient id="grad2_6" x1="0%" y1="0%" x2="66.7%" y2="100%"><stop offset="20%" stop-color="#152a15" stop-opacity="1"></stop><stop offset="80%" stop-color="#112610" stop-opacity="1"></stop></linearGradient></defs><defs><linearGradient id="grad2_7" x1="0%" y1="0%" x2="66.7%" y2="100%"><stop offset="20%" stop-color="#0e210b" stop-opacity="1"></stop><stop offset="80%" stop-color="#112610" stop-opacity="1"></stop></linearGradient></defs><g transform="translate(900, 0)"><path d="M0 540.8C-31.1 547.9 -62.2 554.9 -84.2 531.4C-106.1 507.8 -118.9 453.7 -140.6 432.7C-162.3 411.8 -193 423.9 -210.2 412.5C-227.4 401.1 -231 366.1 -265.1 364.9C-299.2 363.6 -363.7 396.1 -382.4 382.4C-401.1 368.7 -374 308.8 -383.5 278.6C-393 248.4 -439.1 248 -445.5 227C-451.9 206 -418.7 164.4 -424.2 137.8C-429.7 111.2 -473.9 99.6 -499.8 79.2C-525.7 58.7 -533.3 29.3 -540.8 0L0 0Z" fill="#10230e"></path><path d="M0 473.2C-27.2 479.4 -54.4 485.6 -73.6 465C-92.8 444.4 -104 397 -123 378.6C-142 360.3 -168.9 371 -183.9 361C-198.9 351 -202.1 320.4 -232 319.3C-261.8 318.2 -318.3 346.6 -334.6 334.6C-351 322.6 -327.2 270.2 -335.5 243.8C-343.8 217.4 -384.2 217 -389.8 198.6C-395.4 180.2 -366.4 143.9 -371.1 120.6C-375.9 97.3 -414.6 87.2 -437.3 69.3C-460 51.3 -466.6 25.7 -473.2 0L0 0Z" fill="#132813"></path><path d="M0 405.6C-23.3 410.9 -46.7 416.2 -63.1 398.5C-79.6 380.9 -89.2 340.3 -105.5 324.5C-121.8 308.8 -144.8 318 -157.6 309.4C-170.5 300.8 -173.3 274.6 -198.8 273.6C-224.4 272.7 -272.8 297.1 -286.8 286.8C-300.8 276.5 -280.5 231.6 -287.6 209C-294.7 186.3 -329.3 186 -334.1 170.2C-339 154.5 -314 123.3 -318.1 103.4C-322.2 83.4 -355.4 74.7 -374.8 59.4C-394.3 44 -399.9 22 -405.6 0L0 0Z" fill="#172d17"></path><path d="M0 338C-19.4 342.4 -38.9 346.8 -52.6 332.1C-66.3 317.4 -74.3 283.6 -87.9 270.5C-101.5 257.3 -120.6 265 -131.4 257.8C-142.1 250.7 -144.4 228.8 -165.7 228C-187 227.3 -227.3 247.6 -239 239C-250.7 230.4 -233.7 193 -239.7 174.1C-245.6 155.3 -274.4 155 -278.4 141.9C-282.5 128.7 -261.7 102.8 -265.1 86.1C-268.5 69.5 -296.2 62.3 -312.4 49.5C-328.5 36.7 -333.3 18.3 -338 0L0 0Z" fill="#1b321b"></path><path d="M0 270.4C-15.6 273.9 -31.1 277.5 -42.1 265.7C-53.1 253.9 -59.4 226.9 -70.3 216.4C-81.2 205.9 -96.5 212 -105.1 206.3C-113.7 200.6 -115.5 183.1 -132.5 182.4C-149.6 181.8 -181.9 198.1 -191.2 191.2C-200.6 184.4 -187 154.4 -191.7 139.3C-196.5 124.2 -219.5 124 -222.8 113.5C-226 103 -209.3 82.2 -212.1 68.9C-214.8 55.6 -236.9 49.8 -249.9 39.6C-262.8 29.3 -266.6 14.7 -270.4 0L0 0Z" fill="#1f361f"></path><path d="M0 202.8C-11.7 205.5 -23.3 208.1 -31.6 199.3C-39.8 190.4 -44.6 170.1 -52.7 162.3C-60.9 154.4 -72.4 159 -78.8 154.7C-85.3 150.4 -86.6 137.3 -99.4 136.8C-112.2 136.4 -136.4 148.6 -143.4 143.4C-150.4 138.3 -140.2 115.8 -143.8 104.5C-147.4 93.2 -164.7 93 -167.1 85.1C-169.5 77.2 -157 61.7 -159.1 51.7C-161.1 41.7 -177.7 37.4 -187.4 29.7C-197.1 22 -200 11 -202.8 0L0 0Z" fill="#233b23"></path><path d="M0 135.2C-7.8 137 -15.6 138.7 -21 132.8C-26.5 127 -29.7 113.4 -35.2 108.2C-40.6 102.9 -48.3 106 -52.5 103.1C-56.8 100.3 -57.8 91.5 -66.3 91.2C-74.8 90.9 -90.9 99 -95.6 95.6C-100.3 92.2 -93.5 77.2 -95.9 69.7C-98.2 62.1 -109.8 62 -111.4 56.7C-113 51.5 -104.7 41.1 -106 34.5C-107.4 27.8 -118.5 24.9 -124.9 19.8C-131.4 14.7 -133.3 7.3 -135.2 0L0 0Z" fill="#274027"></path><path d="M0 67.6C-3.9 68.5 -7.8 69.4 -10.5 66.4C-13.3 63.5 -14.9 56.7 -17.6 54.1C-20.3 51.5 -24.1 53 -26.3 51.6C-28.4 50.1 -28.9 45.8 -33.1 45.6C-37.4 45.5 -45.5 49.5 -47.8 47.8C-50.1 46.1 -46.7 38.6 -47.9 34.8C-49.1 31.1 -54.9 31 -55.7 28.4C-56.5 25.7 -52.3 20.6 -53 17.2C-53.7 13.9 -59.2 12.5 -62.5 9.9C-65.7 7.3 -66.7 3.7 -67.6 0L0 0Z" fill="#294329"></path></g><g transform="translate(0, 600)"><path d="M0 -540.8C31 -548.2 61.9 -555.5 84.6 -534.2C107.3 -512.9 121.7 -462.9 145.9 -448.9C170 -434.9 204 -457 232.9 -457.1C261.8 -457.2 285.5 -435.4 294.5 -405.3C303.5 -375.2 297.8 -336.7 325.3 -325.3C352.8 -313.8 413.4 -329.5 428.8 -311.5C444.1 -293.6 414.2 -242.1 415.2 -211.6C416.3 -181 448.4 -171.5 473.6 -153.9C498.9 -136.3 517.4 -110.5 527.4 -83.5C537.5 -56.5 539.2 -28.3 540.8 0L0 0Z" fill="#10230e"></path><path d="M0 -473.2C27.1 -479.6 54.2 -486.1 74 -467.4C93.9 -448.7 106.5 -405 127.6 -392.8C148.8 -380.6 178.5 -399.8 203.8 -400C229 -400.1 249.8 -381 257.7 -354.7C265.6 -328.3 260.6 -294.6 284.6 -284.6C308.7 -274.6 361.8 -288.3 375.2 -272.6C388.6 -256.9 362.4 -211.8 363.3 -185.1C364.2 -158.4 392.3 -150.1 414.4 -134.7C436.5 -119.2 452.7 -96.7 461.5 -73.1C470.3 -49.5 471.8 -24.7 473.2 0L0 0Z" fill="#132813"></path><path d="M0 -405.6C23.2 -411.1 46.4 -416.6 63.5 -400.6C80.5 -384.6 91.2 -347.2 109.4 -336.7C127.5 -326.2 153 -342.7 174.7 -342.8C196.3 -342.9 214.1 -326.6 220.9 -304C227.6 -281.4 223.3 -252.5 244 -244C264.6 -235.4 310.1 -247.1 321.6 -233.6C333.1 -220.2 310.6 -181.6 311.4 -158.7C312.2 -135.8 336.3 -128.6 355.2 -115.4C374.2 -102.2 388 -82.9 395.6 -62.7C403.1 -42.4 404.4 -21.2 405.6 0L0 0Z" fill="#172d17"></path><path d="M0 -338C19.4 -342.6 38.7 -347.2 52.9 -333.9C67.1 -320.5 76 -289.3 91.2 -280.6C106.3 -271.8 127.5 -285.6 145.6 -285.7C163.6 -285.8 178.4 -272.2 184.1 -253.3C189.7 -234.5 186.1 -210.4 203.3 -203.3C220.5 -196.1 258.4 -205.9 268 -194.7C277.6 -183.5 258.8 -151.3 259.5 -132.2C260.2 -113.2 280.2 -107.2 296 -96.2C311.8 -85.2 323.4 -69.1 329.6 -52.2C335.9 -35.3 337 -17.7 338 0L0 0Z" fill="#1b321b"></path><path d="M0 -270.4C15.5 -274.1 31 -277.7 42.3 -267.1C53.6 -256.4 60.8 -231.4 72.9 -224.4C85 -217.5 102 -228.5 116.4 -228.5C130.9 -228.6 142.7 -217.7 147.2 -202.7C151.7 -187.6 148.9 -168.3 162.6 -162.6C176.4 -156.9 206.7 -164.7 214.4 -155.8C222.1 -146.8 207.1 -121 207.6 -105.8C208.1 -90.5 224.2 -85.8 236.8 -76.9C249.4 -68.1 258.7 -55.3 263.7 -41.8C268.7 -28.3 269.6 -14.1 270.4 0L0 0Z" fill="#1f361f"></path><path d="M0 -202.8C11.6 -205.6 23.2 -208.3 31.7 -200.3C40.2 -192.3 45.6 -173.6 54.7 -168.3C63.8 -163.1 76.5 -171.4 87.3 -171.4C98.2 -171.5 107.1 -163.3 110.4 -152C113.8 -140.7 111.7 -126.3 122 -122C132.3 -117.7 155 -123.6 160.8 -116.8C166.5 -110.1 155.3 -90.8 155.7 -79.3C156.1 -67.9 168.1 -64.3 177.6 -57.7C187.1 -51.1 194 -41.5 197.8 -31.3C201.6 -21.2 202.2 -10.6 202.8 0L0 0Z" fill="#233b23"></path><path d="M0 -135.2C7.7 -137 15.5 -138.9 21.2 -133.5C26.8 -128.2 30.4 -115.7 36.5 -112.2C42.5 -108.7 51 -114.2 58.2 -114.3C65.4 -114.3 71.4 -108.9 73.6 -101.3C75.9 -93.8 74.4 -84.2 81.3 -81.3C88.2 -78.5 103.4 -82.4 107.2 -77.9C111 -73.4 103.5 -60.5 103.8 -52.9C104.1 -45.3 112.1 -42.9 118.4 -38.5C124.7 -34.1 129.3 -27.6 131.9 -20.9C134.4 -14.1 134.8 -7.1 135.2 0L0 0Z" fill="#274027"></path><path d="M0 -67.6C3.9 -68.5 7.7 -69.4 10.6 -66.8C13.4 -64.1 15.2 -57.9 18.2 -56.1C21.3 -54.4 25.5 -57.1 29.1 -57.1C32.7 -57.2 35.7 -54.4 36.8 -50.7C37.9 -46.9 37.2 -42.1 40.7 -40.7C44.1 -39.2 51.7 -41.2 53.6 -38.9C55.5 -36.7 51.8 -30.3 51.9 -26.4C52 -22.6 56 -21.4 59.2 -19.2C62.4 -17 64.7 -13.8 65.9 -10.4C67.2 -7.1 67.4 -3.5 67.6 0L0 0Z" fill="#294329"></path></g></svg>